# xmcd
#
# Track frame offsets:
#	150
#	15397
#	30451
#	40851
#	53830
#	67077
#	75604
#	90647
#	104390
#	116937
#	129946
#	142711
#	154342
#	168575
#
# Disc length: 2448 seconds
#
# Revision: 1
# Processed by: cddbd v1.5.2PL0 Copyright (c) Steve Scherf et al.
# Submitted via: audiograbber 1.83.01
#
DISCID=b0098e0e
DTITLE=аццекопоукос ламыкгс [2001] CD2 - о дийос лас тсиццамос [йасетима 2]
DYEAR=2001
DGENRE=
TTITLE0=амеба сто тяапефи лоу
TTITLE1=ацапес лоу пеяастийес
TTITLE2=аутг г йуяиа
TTITLE3=ауто то тгкежымгла
TTITLE4=цаяоужако ст' аути
TTITLE5=циме йаядиа лоу лаялаяо
TTITLE6=цуяма
TTITLE7=дейа вяомиа ацапг
TTITLE8=думалитг ле жутики
TTITLE9=дысте та веяиа
TTITLE10=ецы тяекахгйа
TTITLE11=г лама г тоуяйа
TTITLE12=еимаи еутувгс о амхяыпос
TTITLE13=ломо есу
EXTD=
EXTT0=
EXTT1=
EXTT2=
EXTT3=
EXTT4=
EXTT5=
EXTT6=
EXTT7=
EXTT8=
EXTT9=
EXTT10=
EXTT11=
EXTT12=
EXTT13=
PLAYORDER=
